<?xml version="1.0" encoding="UTF-8" standalone="no"?>
<!-- Created with Inkscape (http://www.inkscape.org/) -->

<svg
   xmlns:dc="http://purl.org/dc/elements/1.1/"
   xmlns:cc="http://creativecommons.org/ns#"
   xmlns:rdf="http://www.w3.org/1999/02/22-rdf-syntax-ns#"
   xmlns:svg="http://www.w3.org/2000/svg"
   xmlns="http://www.w3.org/2000/svg"
   xmlns:sodipodi="http://sodipodi.sourceforge.net/DTD/sodipodi-0.dtd"
   xmlns:inkscape="http://www.inkscape.org/namespaces/inkscape"
   width="93.067139"
   height="112.6329"
   id="svg3106"
   version="1.1"
   inkscape:version="0.48.5 r10040"
   sodipodi:docname="key.svg">
  <defs
     id="defs3108" />
  <sodipodi:namedview
     id="base"
     pagecolor="#ffffff"
     bordercolor="#666666"
     borderopacity="1.0"
     inkscape:pageopacity="0.0"
     inkscape:pageshadow="2"
     inkscape:zoom="5.6"
     inkscape:cx="103.46562"
     inkscape:cy="79.391679"
     inkscape:document-units="px"
     inkscape:current-layer="layer1"
     showgrid="false"
     inkscape:window-width="1481"
     inkscape:window-height="1053"
     inkscape:window-x="0"
     inkscape:window-y="0"
     inkscape:window-maximized="0"
     fit-margin-top="0"
     fit-margin-left="0"
     fit-margin-right="0"
     fit-margin-bottom="0"
     showborder="false"
     inkscape:showpageshadow="false" />
  <metadata
     id="metadata3111">
    <rdf:RDF>
      <cc:Work
         rdf:about="">
        <dc:format>image/svg+xml</dc:format>
        <dc:type
           rdf:resource="http://purl.org/dc/dcmitype/StillImage" />
        <dc:title />
      </cc:Work>
    </rdf:RDF>
  </metadata>
  <g
     inkscape:label="Layer 1"
     inkscape:groupmode="layer"
     id="layer1"
     transform="translate(-30.608716,-273.34581)">
    <path
       style="fill:#ffffff;stroke:none"
       d="m 58.53125,-2 c -0.510446,-0.00152 -0.990705,0.011729 -1.5,0.03125 -5.093436,0.0896 -9.181903,1.0664 -14.78125,3.21875 -1.847217,1.40321 -4.711494,2.59025 -5.90625,4.09375 -3.103533,2.33225 -7.6269,6.9898 -9.0625,11.71875 -1.343624,1.91364 -1.752156,5.36865 -2.3125,7.8125 -1.032027,5.14725 -0.732619,6.916304 -0.133929,12.566964 0.915687,4.46889 2.334915,8.772246 3.602679,10.495536 -1.380246,2.69887 -3.335458,5.84019 -5.34375,8.15625 -3.187324,2.38033 0.702531,6.49259 -2.46875,8.75 -6.917849,10.22377 -14.573333,20.40488 -21.53125,30.59375 -0.905107,0.0633 -2.185221,7.96826 -0.0625,8.40625 1.685965,2.54259 2.743207,5.94441 6.4375,6.5625 1.850795,1.08362 3.954745,-2.08903 7.40625,-1.78125 3.496371,-0.98451 4.747829,-3.92191 7.4375,-5.8125 2.834878,-0.94345 3.916494,-4.57936 5.8125,-7.03125 0.590039,-3.31725 2.598975,-6.25288 1.71875,-9.84375 1.578101,-2.50766 5.965749,-2.38312 5.65625,-5.375 4.162055,-2.47212 8.648095,-4.67169 12.75,-7.25 3.088523,-2.6833 3.812078,-8.86949 9.125,-7.78125 11.200523,-0.086 22.2521,-5.87568 29.15625,-14.5625 4.03227,-5.46452 6.76176,-12.26055 6.375,-19.15625 C 90.78635,27.28064 90.38882,22.65226 88.1875,18.59375 84.13187,8.67272 76.89262,2.61126 69.03125,-0.125 65.716049,-1.442155 62.104371,-1.9893716 58.53125,-2 z m 9.147321,20.584822 c 5.94363,4.24194 -0.904747,12.059382 -6.46875,9.495535 -6.304102,-2.06222 -5.137694,-10.933428 0.763394,-11.258928 1.93584,-0.312133 4.549807,0.81416 5.705356,1.763393 z"
       transform="translate(32.733162,275.34593)"
       id="path2991"
       inkscape:connector-curvature="0"
       sodipodi:nodetypes="scccccccccccccccccccccccscccc" />
    <path
       style="fill:#000000"
       d="m 38.082632,383.51992 c -0.991066,-0.47599 -1.27135,-0.34422 -2.328686,-1.23891 -0.561927,-1.77326 -1.545479,-1.73199 -1.056763,-3.56362 -1.197328,0.19029 -0.758526,-1.04607 -1.964021,-1.38555 0.07593,-0.2508 1.09016,-0.1082 0.341067,-1.95602 0.75251,1.2357 -0.548837,-4.51736 1.803683,-5.39833 0.500057,-0.80484 2.547156,-3.61998 3.040311,-4.39877 0.85472,-1.26845 2.330287,-3.1727 3.387876,-4.82052 0.910739,-1.2955 2.093578,-2.95703 2.936666,-4.02754 0.862883,-1.65467 2.173287,-3.14395 3.412381,-4.98643 1.83794,-1.75975 2.040039,-3.66009 3.712908,-4.83997 1.001424,-1.58593 2.005905,-3.69219 3.433767,-4.8189 0.16682,-1.58228 1.970581,-2.56719 2.105311,-3.62495 0.560938,-0.47213 1.048544,-2.69667 0.207223,-1.53878 -0.880413,0.64415 -0.5229,-1.9074 -0.322722,-1.37508 -0.542755,-0.73101 -0.5141,-0.79072 0.0083,-2.36297 1.333323,-0.55769 2.034965,-2.15984 3.00926,-4.00907 0.738753,-1.19978 1.91722,-2.3546 2.168215,-3.24807 1.490133,-1.22233 0.714046,-2.28215 1.674818,-3.48856 -1.252637,0.13035 -1.745514,-2.00815 -2.371548,-2.64868 0.989935,0.77767 -1.105178,-1.75875 -0.220975,-1.86808 0.146369,-1.32457 -0.669506,-1.55603 -0.602946,-2.78361 0.215319,-1.23504 0.05047,-2.53855 -0.430975,-4.02574 -0.251727,-1.08079 -0.04736,-3.20131 -0.130751,-3.9911 -0.337472,-2.37027 0.294287,-2.57508 0.204586,-5.39196 2.648909,0.582 -0.679905,-0.55416 0.331357,-1.09453 -0.336101,-2.33863 0.981304,-1.80778 0.694448,-3.7237 0.135136,-1.0847 0.578823,-1.21081 1.711622,-2.49575 1.014541,-0.15668 -0.668572,2.94298 1.758116,1.25115 0.23861,-2.84024 1.907625,-3.61795 2.527264,-5.10457 1.8025,-1.80998 4.444781,-5.23817 6.200521,-5.6887 -3.897137,3.15156 -7.090574,7.5116 -8.855381,12.22519 -3.179097,-0.38281 0.03934,-0.10827 -0.248339,1.30324 2.181691,-0.68098 -1.654036,0.60208 -0.825168,1.68574 0.0289,0.69838 -1.460355,-0.8388 -0.677319,0.0475 -1.061363,0.42882 0.840645,1.14633 0.340362,2.09007 1.062648,0.5879 -1.84651,2.18236 0.355729,1.09092 0.723526,-0.22831 0.748833,-1.16666 1.317671,-1.40373 0.858747,0.46873 -1.20418,-1.82001 0.212149,-0.87075 0.108162,-1.77151 1.135455,-1.465 0.866467,-1.29252 0.361026,-0.53881 2.250268,-0.43679 1.537663,-0.14609 -0.894469,2.35589 2.16151,1.81899 2.223193,1.69006 1.926996,-0.56884 0.655088,1.82602 1.964907,1.5553 -0.384792,0.26392 1.228903,0.93893 1.228155,1.50181 0.02952,-2.40657 1.568915,-1.91203 1.881313,-2.49239 1.520854,-0.82888 0.503633,1.38828 1.457706,-0.16189 1.821451,-0.33605 1.267242,0.56156 1.968155,0.55969 -0.150785,0.2355 1.595079,-1.00519 1.219805,0.23142 -1.182027,1.60594 0.759092,0.0803 0.139951,1.44478 0.710057,-1.21629 1.846073,0.0622 2.524226,-0.16392 1.196344,-0.1472 -0.512833,-0.7337 1.303821,-0.35255 0.549457,0.55588 1.236108,0.10277 1.865873,0.38525 1.128943,0.0704 2.164127,2.99592 1.953605,0.43697 -0.75966,-1.67132 -1.774521,-2.92612 -1.384362,-4.41837 -0.772045,-0.77641 0.273903,-3.41841 0.614342,-0.30463 0.294421,1.44164 1.84038,2.12092 1.826211,3.24399 1.315879,1.26756 1.497042,0.20895 1.3979,-0.28032 1.269003,2.3537 3.492725,3.59299 5.965144,4.07351 2.202512,0.31697 4.822096,-0.5886 1.009479,-0.30364 -2.242612,-0.10625 -4.461606,-1.78384 -0.759341,-0.53446 1.922977,0.0791 3.327023,-0.0682 4.961928,-1.22758 3.03703,-1.55989 5.07593,-5.67415 3.46029,-8.88184 0.10337,-1.07448 -0.77301,-0.96283 -0.77581,-1.76519 -2.17351,-2.1819 -2.229,-2.36316 -5.060553,-3.17851 -0.355426,0.0633 -1.968809,-0.36521 -2.767019,-0.6572 -1.180874,0.16203 -5.517391,0.0421 -6.447037,2.89366 -1.278357,3.54616 -1.068327,0.66 0.01659,-1.1242 0.992459,-1.4576 2.79672,-3.08345 5.010986,-3.54865 2.637856,-0.86712 5.588757,0.0748 7.493173,1.0238 4.16561,2.32213 5.38925,8.25544 2.89547,12.2755 -1.04436,1.07818 -1.51385,4.2271 -0.85581,2.87357 1.15672,-0.73907 1.13004,-0.16155 2.02889,-0.99901 1.84497,-1.23557 1.84808,-2.69969 1.72876,0.0276 -0.9589,0.60428 -0.009,1.25915 -1.40687,2.25048 1.06026,0.6894 -2.03021,0.35337 -2.22782,2.06989 0.69486,-0.5441 1.9235,0.1667 2.73003,0.16088 -0.17908,-0.83643 5.34285,0.0407 3.39777,-0.86346 1.62662,-0.23399 1.02202,0.51831 2.28222,0.83908 1.42877,0.70748 2.6445,-0.88578 2.74519,1.10566 0.23579,-0.0414 3.18204,-1.52139 1.69794,-0.40583 2.15314,0.0767 -0.19561,1.06083 1.09313,1.10875 1.90357,-0.33983 0.45846,-0.8743 0.83617,-3.20021 1.11739,-4.30963 -3.33978,-20.24586 -17.43422,-26.11085 16.49254,6.38979 17.425,19.77023 19.46056,24.60989 0.41647,0.68517 -2.2064,1.4634 -1.33851,1.659 1.05176,0.13262 1.38111,0.53132 2.41722,1.43578 0.19035,2.11423 -0.78321,5.24896 -0.95042,7.06968 -1.15435,2.9186 -2.25,6.19366 -4.36452,8.85806 -1.88023,3.18157 -5.29822,6.26681 -8.63533,8.44562 -2.63159,1.76997 -6.57208,3.20165 -8.755249,4.53122 -1.483855,0.50603 -3.629575,1.21228 -5.184998,1.3802 -0.76121,0.18172 -2.639617,0.35746 -4.412705,0.47483 -1.95193,-0.0306 -3.311732,0.20192 -5.374356,0.53498 -1.812657,0.37989 -2.827541,3.24763 -4.253872,4.88079 -1.300674,1.91349 -2.498919,3.9404 -4.729192,4.4336 -2.401536,0.75513 -4.089144,2.44822 -6.413699,3.54421 -1.518245,1.43912 -4.845953,1.53269 -4.594047,4.30936 -2.389315,0.82545 -2.496823,1.34227 -4.552141,2.98051 -2.434782,1.74089 0.953521,5.78422 -2.259348,7.74828 0.975944,3.8596 -2.568951,5.27581 -3.652148,8.56958 -2.00264,0.59621 -4.005724,1.77242 -4.835262,4.20774 -1.692092,0.93372 -3.134473,1.54804 -4.186723,2.20435 -1.471071,0.0871 -2.645239,0.40807 -4.7975,0.95469 -0.586265,0.19005 -1.727119,-0.33209 -1.655418,0.30835 z m -1.261046,-3.2183 c 1.825477,-2.85836 1.685451,-2.26681 0.755051,0.32752 1.421622,-2.62284 3.115175,-4.34039 4.853702,-6.97298 1.018686,-1.73929 2.29585,-2.98618 3.149429,-4.67165 -0.06943,-1.08627 -1.135166,0.76864 -1.795873,1.63728 -0.554601,1.53537 -4.767568,7.54785 -4.047979,5.1435 1.000079,-1.03183 1.008395,-1.71753 2.097694,-2.43979 0.265439,-1.67451 -0.824461,0.47954 -1.684966,0.028 0.951745,1.31196 -1.697321,2.53474 -2.190472,3.98077 -0.15381,0.46379 -2.823766,3.51011 -1.136586,2.96733 z m -1.297067,-1.77651 c 0.671441,-1.64476 0.560755,-1.33503 2.018959,-1.5064 1.121515,-0.42493 0.572189,-1.8067 2.07634,-2.58731 0.692234,-1.9337 2.00169,-2.67898 2.770179,-4.6105 2.308877,-2.20581 -0.857019,-2.47463 -1.529091,-0.35139 -1.297461,1.37445 -0.439984,0.90501 -0.814474,1.8222 -2.023717,0.97361 -2.243861,2.90409 -3.699983,4.60872 -0.332845,0.8765 -2.247327,1.98276 -0.82193,2.62468 z m -0.321197,-2.81631 c 4.087066,-5.6536 7.917122,-11.45624 12.004327,-17.10466 0.852051,-2.17856 4.377935,-5.19401 4.170284,-6.88761 1.072135,-0.55122 4.619963,-5.02218 4.519713,-6.05209 -0.822198,1.4373 -2.636791,3.39517 -3.534924,4.09518 0.168657,-1.75438 1.664942,-3.60257 2.707971,-5.05938 0.767857,-1.78172 2.339709,-3.13363 2.300223,-4.89501 0.833177,-1.96874 -2.378309,2.60959 -1.897598,2.79291 -1.51314,2.47584 -3.534822,4.55587 -4.811615,6.94363 -2.809455,3.73908 -5.523654,7.67433 -8.256962,11.40253 -1.352634,2.28814 -3.126891,4.36229 -4.75999,6.69339 -1.073783,1.09946 -5.564397,9.06042 -2.441429,8.07111 z m 7.8203,-4.32557 c 0.672613,-1.25608 5.08582,-7.27363 2.258557,-3.99616 -0.842954,1.87347 -2.39752,2.26055 -2.422933,4.15676 l 0.164373,-0.1606 z m 3.146313,-3.08745 c 1.220809,-1.85522 2.97339,-3.74801 3.581401,-5.65372 1.522231,0.0431 1.2601,-2.95895 0.255256,-0.19672 -1.973493,2.06518 -1.210055,-0.0439 -0.126928,-1.02748 -0.403388,-1.08424 -2.435146,3.13201 -3.413946,4.20382 0.76694,-0.1933 3.12948,-3.59462 1.311312,-0.38076 -0.455053,0.29622 -2.672792,3.48152 -1.607095,3.05486 z m -1.98632,-1.03407 c 1.210579,-1.29875 1.133864,-2.1445 2.324314,-3.31192 2.258167,-2.67242 -2.267251,-1.8352 -1.827686,0.77103 -1.558184,1.62704 -1.395216,3.36413 -0.08441,0.69388 0.849925,0.4289 -1.823923,2.52505 -0.412216,1.84701 z m 5.003578,-7.06505 c -0.370815,0.04 -0.497313,-1.57698 -1.607579,-0.15972 0.855649,-0.13178 0.660456,0.47852 1.607579,0.15972 z m 41.399828,-24.71877 c 6.129304,-0.51962 12.677319,-2.13716 17.535339,-6.23152 3.78798,-2.88352 6.94535,-7.1307 8.66371,-11.6752 1.15336,-2.53542 0.0461,-2.01137 -0.31056,-0.63588 -0.52838,1.60386 -0.60611,1.86814 -1.48727,3.40041 -1.02837,2.14751 -3.05298,3.98539 -4.20958,5.54134 -5.96251,6.40892 -15.013737,9.31351 -23.670156,8.50727 -4.198903,1.18448 2.865896,1.03488 3.478517,1.09358 z m -5.230947,-4.01397 c -0.64818,-1.28633 -2.069035,-1.62528 -3.453568,-2.82159 -3.35797,-2.51957 -7.078579,-5.02261 -10.616085,-7.5515 -1.133313,-2.38105 -4.86351,0.5725 -5.386375,-1.67247 -0.598943,-1.32076 -1.278272,-2.74655 -1.765797,-4.16802 -0.225079,-1.135 -0.516937,-2.88647 -1.050294,-3.82359 0.524392,-1.71513 -1.017182,-2.83725 -0.560347,-0.727 0.176614,1.9979 0.687858,4.84818 1.775276,7.02046 0.367749,3.32346 2.462278,3.66768 5.391999,3.40279 2.688869,1.69184 5.13112,3.53402 7.910913,5.26956 2.645389,1.80084 5.200881,3.65867 7.544239,5.76152 l 0.102951,-0.10832 0.10715,-0.58186 z m 17.895316,-21.78935 c -0.2481,-0.82927 2.80322,-1.51189 0.45885,-1.65583 0.41078,0.46231 -1.84445,1.71791 -0.45885,1.65583 z m -40.147105,-1.06822 c -0.921896,-1.8403 1.061207,-1.30869 -0.277946,-2.309 0.721181,-1.00394 0.508299,-1.96591 0.800655,-2.84748 -1.586214,0.28617 -1.417451,2.46891 -1.347184,3.53687 -0.675644,0.98079 0.450238,3.7182 0.824475,1.61961 z m 0.226801,-15.56482 c -0.630614,-1.5719 2.139925,-3.54874 0.226443,-0.63967 0.662675,-0.002 -0.210927,0.48274 -0.226443,0.63967 z m 1.780721,-4.29409 c 2.7235,-5.45057 11.961399,-10.90751 13.301946,-10.71058 -3.83938,1.61472 -9.224914,5.40756 -13.301946,10.71058 z m 36.579483,-11.17798 c -4.392115,-1.79116 -9.108812,-2.13826 -13.877581,-1.73247 -2.102474,-0.15852 -6.898576,1.87705 -7.298541,1.27756 2.531618,-0.73789 5.659764,-1.56909 8.484338,-1.69414 4.260158,-0.29715 8.974613,0.28215 12.783554,1.96653 0.74543,0.40208 1.01911,0.26069 -0.0918,0.18252 z"
       id="path3185"
       inkscape:connector-curvature="0"
       sodipodi:nodetypes="ccccccccccccccccccccccccccccccccccccccccccccccccccccccccccccccccccccccccccccccccccccccccccccccccccccccccccccccccccccccccccccccccccccccccccccccccccccccccccccccccccccccccccccccccccccccccccccccccccccc" />
  </g>
</svg>
